<svg width="633" height="201" viewBox="0 0 633 201" fill="none" xmlns="http://www.w3.org/2000/svg">
<path d="M277.08 158.92C268.333 158.92 260.493 156.787 253.56 152.52C246.733 148.147 241.293 141.907 237.24 133.8C233.293 125.693 231.32 115.933 231.32 104.52C231.32 93.2133 233.347 83.5067 237.4 75.4C241.453 67.2933 247 61.0533 254.04 56.68C261.08 52.3067 269.027 50.12 277.88 50.12C284.28 50.12 289.933 51.4533 294.84 54.12C299.747 56.68 303.693 59.6667 306.68 63.08L299.48 71.72C296.707 68.7333 293.56 66.3333 290.04 64.52C286.52 62.7067 282.52 61.8 278.04 61.8C271.427 61.8 265.613 63.56 260.6 67.08C255.693 70.4933 251.853 75.3467 249.08 81.64C246.413 87.9333 245.08 95.4533 245.08 104.2C245.08 112.947 246.413 120.573 249.08 127.08C251.747 133.48 255.48 138.44 260.28 141.96C265.187 145.48 270.947 147.24 277.56 147.24C282.573 147.24 287.053 146.173 291 144.04C294.947 141.907 298.573 139.027 301.88 135.4L309.24 143.72C305.08 148.52 300.387 152.253 295.16 154.92C289.933 157.587 283.907 158.92 277.08 158.92ZM359.526 158.92C352.166 158.92 345.34 157.533 339.046 154.76C332.753 151.88 327.313 148.093 322.726 143.4L330.726 134.12C334.46 138.067 338.833 141.267 343.846 143.72C348.966 146.067 354.246 147.24 359.686 147.24C366.62 147.24 372.006 145.693 375.846 142.6C379.686 139.4 381.606 135.24 381.606 130.12C381.606 126.493 380.806 123.613 379.206 121.48C377.713 119.347 375.633 117.533 372.966 116.04C370.406 114.547 367.473 113.053 364.166 111.56L349.126 105C345.82 103.613 342.513 101.8 339.206 99.56C336.006 97.32 333.286 94.44 331.046 90.92C328.913 87.4 327.846 83.08 327.846 77.96C327.846 72.6267 329.233 67.88 332.006 63.72C334.886 59.4533 338.833 56.1467 343.846 53.8C348.86 51.3467 354.513 50.12 360.806 50.12C367.1 50.12 372.913 51.3467 378.246 53.8C383.58 56.1467 388.113 59.24 391.846 63.08L384.646 71.72C381.446 68.6267 377.873 66.2267 373.926 64.52C370.086 62.7067 365.713 61.8 360.806 61.8C354.94 61.8 350.193 63.1867 346.566 65.96C343.046 68.7333 341.286 72.4667 341.286 77.16C341.286 80.4667 342.14 83.24 343.846 85.48C345.66 87.6133 347.9 89.3733 350.566 90.76C353.233 92.1467 355.953 93.4267 358.726 94.6L373.606 101C377.66 102.707 381.286 104.787 384.486 107.24C387.793 109.587 390.406 112.52 392.326 116.04C394.246 119.453 395.206 123.773 395.206 129C395.206 134.547 393.766 139.613 390.886 144.2C388.006 148.68 383.9 152.253 378.566 154.92C373.233 157.587 366.886 158.92 359.526 158.92ZM417.475 157V52.04H430.755V157H417.475ZM461.106 157V52.04H487.346C503.56 52.04 515.88 56.5733 524.306 65.64C532.733 74.6 536.946 87.4 536.946 104.04C536.946 120.787 532.733 133.8 524.306 143.08C515.986 152.36 503.88 157 487.986 157H461.106ZM474.386 146.12H486.386C498.653 146.12 507.826 142.44 513.906 135.08C520.093 127.613 523.186 117.267 523.186 104.04C523.186 90.8133 520.093 80.68 513.906 73.64C507.826 66.4933 498.653 62.92 486.386 62.92H474.386V146.12ZM590.264 158.92C582.904 158.92 576.077 157.533 569.784 154.76C563.49 151.88 558.05 148.093 553.464 143.4L561.464 134.12C565.197 138.067 569.57 141.267 574.584 143.72C579.704 146.067 584.984 147.24 590.424 147.24C597.357 147.24 602.744 145.693 606.584 142.6C610.424 139.4 612.344 135.24 612.344 130.12C612.344 126.493 611.544 123.613 609.944 121.48C608.45 119.347 606.37 117.533 603.704 116.04C601.144 114.547 598.21 113.053 594.904 111.56L579.864 105C576.557 103.613 573.25 101.8 569.944 99.56C566.744 97.32 564.024 94.44 561.784 90.92C559.65 87.4 558.584 83.08 558.584 77.96C558.584 72.6267 559.97 67.88 562.744 63.72C565.624 59.4533 569.57 56.1467 574.584 53.8C579.597 51.3467 585.25 50.12 591.544 50.12C597.837 50.12 603.65 51.3467 608.984 53.8C614.317 56.1467 618.85 59.24 622.584 63.08L615.384 71.72C612.184 68.6267 608.61 66.2267 604.664 64.52C600.824 62.7067 596.45 61.8 591.544 61.8C585.677 61.8 580.93 63.1867 577.304 65.96C573.784 68.7333 572.024 72.4667 572.024 77.16C572.024 80.4667 572.877 83.24 574.584 85.48C576.397 87.6133 578.637 89.3733 581.304 90.76C583.97 92.1467 586.69 93.4267 589.464 94.6L604.344 101C608.397 102.707 612.024 104.787 615.224 107.24C618.53 109.587 621.144 112.52 623.064 116.04C624.984 119.453 625.944 123.773 625.944 129C625.944 134.547 624.504 139.613 621.624 144.2C618.744 148.68 614.637 152.253 609.304 154.92C603.97 157.587 597.624 158.92 590.264 158.92Z" fill="white"/>
<path d="M66.4375 76.3027L125.758 54" stroke="white" stroke-width="11" stroke-linecap="round"/>
<path d="M125.322 133.153L66.0017 155.456" stroke="white" stroke-width="11" stroke-linecap="round"/>
<path d="M66.4863 76.4771L125.807 98.7798" stroke="white" stroke-width="11" stroke-linecap="round"/>
<path d="M125.423 132.95L65.9993 110.885" stroke="white" stroke-width="11" stroke-linecap="round"/>
<rect x="5.5" y="14.5" width="180" height="180" stroke="white" stroke-width="11"/>
</svg>
