<svg width="1183" height="351" viewBox="0 0 1183 351" fill="none" xmlns="http://www.w3.org/2000/svg">
<path d="M110.949 119.874L240.224 65.0002" stroke="white" stroke-width="14" stroke-linecap="round"/>
<path d="M239.275 230.999L110.001 285.873" stroke="white" stroke-width="14" stroke-linecap="round"/>
<path d="M111.055 120.302L240.329 175.176" stroke="white" stroke-width="14" stroke-linecap="round"/>
<path d="M239.499 230.499L110 176.211" stroke="white" stroke-width="14" stroke-linecap="round"/>
<rect x="7" y="7" width="337" height="337" stroke="white" stroke-width="14"/>
<path d="M423.96 94.08C419.04 94.08 414.57 92.91 410.55 90.57C406.53 88.23 403.32 84.81 400.92 80.31C398.58 75.75 397.41 70.23 397.41 63.75C397.41 57.33 398.61 51.84 401.01 47.28C403.47 42.66 406.74 39.15 410.82 36.75C414.9 34.29 419.4 33.06 424.32 33.06C428.04 33.06 431.34 33.81 434.22 35.31C437.1 36.81 439.47 38.55 441.33 40.53L435.75 47.28C434.25 45.72 432.57 44.49 430.71 43.59C428.91 42.63 426.87 42.15 424.59 42.15C421.41 42.15 418.56 43.02 416.04 44.76C413.58 46.44 411.63 48.87 410.19 52.05C408.81 55.23 408.12 59.04 408.12 63.48C408.12 70.2 409.59 75.48 412.53 79.32C415.47 83.1 419.4 84.99 424.32 84.99C426.96 84.99 429.3 84.45 431.34 83.37C433.38 82.23 435.24 80.76 436.92 78.96L442.5 85.53C440.1 88.29 437.34 90.42 434.22 91.92C431.16 93.36 427.74 94.08 423.96 94.08ZM469.515 94.08C465.855 94.08 462.435 93.18 459.255 91.38C456.075 89.52 453.495 86.88 451.515 83.46C449.535 79.98 448.545 75.81 448.545 70.95C448.545 66.03 449.535 61.86 451.515 58.44C453.495 54.96 456.075 52.32 459.255 50.52C462.435 48.66 465.855 47.73 469.515 47.73C473.235 47.73 476.685 48.66 479.865 50.52C483.045 52.32 485.625 54.96 487.605 58.44C489.585 61.86 490.575 66.03 490.575 70.95C490.575 75.81 489.585 79.98 487.605 83.46C485.625 86.88 483.045 89.52 479.865 91.38C476.685 93.18 473.235 94.08 469.515 94.08ZM469.515 85.62C472.755 85.62 475.305 84.27 477.165 81.57C479.025 78.87 479.955 75.33 479.955 70.95C479.955 66.51 479.025 62.94 477.165 60.24C475.305 57.54 472.755 56.19 469.515 56.19C466.275 56.19 463.725 57.54 461.865 60.24C460.065 62.94 459.165 66.51 459.165 70.95C459.165 75.33 460.065 78.87 461.865 81.57C463.725 84.27 466.275 85.62 469.515 85.62ZM500.82 93V48.81H509.37L510.09 54.75H510.45C512.43 52.83 514.59 51.18 516.93 49.8C519.27 48.42 521.94 47.73 524.94 47.73C529.68 47.73 533.13 49.26 535.29 52.32C537.45 55.38 538.53 59.7 538.53 65.28V93H528.18V66.63C528.18 62.97 527.64 60.39 526.56 58.89C525.48 57.39 523.71 56.64 521.25 56.64C519.33 56.64 517.62 57.12 516.12 58.08C514.68 58.98 513.03 60.33 511.17 62.13V93H500.82ZM563.511 94.08C560.511 94.08 557.511 93.51 554.511 92.37C551.511 91.17 548.931 89.7 546.771 87.96L551.631 81.3C553.611 82.8 555.591 84 557.571 84.9C559.551 85.8 561.651 86.25 563.871 86.25C566.271 86.25 568.041 85.74 569.181 84.72C570.321 83.7 570.891 82.44 570.891 80.94C570.891 79.68 570.411 78.66 569.451 77.88C568.551 77.04 567.381 76.32 565.941 75.72C564.501 75.06 563.001 74.43 561.441 73.83C559.521 73.11 557.601 72.24 555.681 71.22C553.821 70.14 552.291 68.79 551.091 67.17C549.891 65.49 549.291 63.42 549.291 60.96C549.291 57.06 550.731 53.88 553.611 51.42C556.491 48.96 560.391 47.73 565.311 47.73C568.431 47.73 571.221 48.27 573.681 49.35C576.141 50.43 578.271 51.66 580.071 53.04L575.301 59.34C573.741 58.2 572.151 57.3 570.531 56.64C568.971 55.92 567.321 55.56 565.581 55.56C563.361 55.56 561.711 56.04 560.631 57C559.551 57.9 559.011 59.04 559.011 60.42C559.011 62.16 559.911 63.48 561.711 64.38C563.511 65.28 565.611 66.15 568.011 66.99C570.051 67.71 572.031 68.61 573.951 69.69C575.871 70.71 577.461 72.06 578.721 73.74C580.041 75.42 580.701 77.64 580.701 80.4C580.701 84.18 579.231 87.42 576.291 90.12C573.351 92.76 569.091 94.08 563.511 94.08ZM608.031 94.08C604.371 94.08 600.951 93.18 597.771 91.38C594.591 89.52 592.011 86.88 590.031 83.46C588.051 79.98 587.061 75.81 587.061 70.95C587.061 66.03 588.051 61.86 590.031 58.44C592.011 54.96 594.591 52.32 597.771 50.52C600.951 48.66 604.371 47.73 608.031 47.73C611.751 47.73 615.201 48.66 618.381 50.52C621.561 52.32 624.141 54.96 626.121 58.44C628.101 61.86 629.091 66.03 629.091 70.95C629.091 75.81 628.101 79.98 626.121 83.46C624.141 86.88 621.561 89.52 618.381 91.38C615.201 93.18 611.751 94.08 608.031 94.08ZM608.031 85.62C611.271 85.62 613.821 84.27 615.681 81.57C617.541 78.87 618.471 75.33 618.471 70.95C618.471 66.51 617.541 62.94 615.681 60.24C613.821 57.54 611.271 56.19 608.031 56.19C604.791 56.19 602.241 57.54 600.381 60.24C598.581 62.94 597.681 66.51 597.681 70.95C597.681 75.33 598.581 78.87 600.381 81.57C602.241 84.27 604.791 85.62 608.031 85.62ZM639.336 93V48.81H647.886L648.606 56.64H648.966C650.526 53.76 652.416 51.57 654.636 50.07C656.856 48.51 659.136 47.73 661.476 47.73C663.576 47.73 665.256 48.03 666.516 48.63L664.716 57.63C663.936 57.39 663.216 57.21 662.556 57.09C661.896 56.97 661.086 56.91 660.126 56.91C658.386 56.91 656.556 57.6 654.636 58.98C652.716 60.3 651.066 62.64 649.686 66V93H639.336ZM688.48 94.08C683.38 94.08 679.75 92.61 677.59 89.67C675.49 86.67 674.44 82.8 674.44 78.06V57H668.14V49.26L674.98 48.81L676.24 36.75H684.88V48.81H696.13V57H684.88V78.06C684.88 83.22 686.95 85.8 691.09 85.8C691.87 85.8 692.68 85.71 693.52 85.53C694.36 85.29 695.08 85.05 695.68 84.81L697.48 92.46C696.28 92.88 694.9 93.24 693.34 93.54C691.84 93.9 690.22 94.08 688.48 94.08ZM705.429 93V48.81H715.779V93H705.429ZM710.649 41.07C708.789 41.07 707.289 40.53 706.149 39.45C705.009 38.37 704.439 36.93 704.439 35.13C704.439 33.39 705.009 31.98 706.149 30.9C707.289 29.82 708.789 29.28 710.649 29.28C712.509 29.28 714.009 29.82 715.149 30.9C716.289 31.98 716.859 33.39 716.859 35.13C716.859 36.93 716.289 38.37 715.149 39.45C714.009 40.53 712.509 41.07 710.649 41.07ZM742.124 94.08C737.384 94.08 733.934 92.55 731.774 89.49C729.614 86.43 728.534 82.11 728.534 76.53V48.81H738.884V75.18C738.884 78.84 739.424 81.42 740.504 82.92C741.584 84.42 743.324 85.17 745.724 85.17C747.644 85.17 749.324 84.69 750.764 83.73C752.264 82.77 753.854 81.21 755.534 79.05V48.81H765.884V93H757.424L756.614 86.52H756.344C754.424 88.8 752.324 90.63 750.044 92.01C747.764 93.39 745.124 94.08 742.124 94.08ZM778.994 93V48.81H787.544L788.264 54.84H788.624C790.484 52.86 792.494 51.18 794.654 49.8C796.874 48.42 799.364 47.73 802.124 47.73C805.364 47.73 807.944 48.45 809.864 49.89C811.844 51.27 813.344 53.19 814.364 55.65C816.464 53.37 818.654 51.48 820.934 49.98C823.274 48.48 825.824 47.73 828.584 47.73C833.264 47.73 836.714 49.26 838.934 52.32C841.154 55.38 842.264 59.7 842.264 65.28V93H831.824V66.63C831.824 62.97 831.254 60.39 830.114 58.89C829.034 57.39 827.354 56.64 825.074 56.64C822.314 56.64 819.224 58.47 815.804 62.13V93H805.454V66.63C805.454 62.97 804.884 60.39 803.744 58.89C802.664 57.39 800.954 56.64 798.614 56.64C795.854 56.64 792.764 58.47 789.344 62.13V93H778.994ZM874.661 93V57H868.721V49.26L874.661 48.81V44.22C874.661 39.6 875.801 35.82 878.081 32.88C880.361 29.88 884.111 28.38 889.331 28.38C890.891 28.38 892.391 28.53 893.831 28.83C895.271 29.13 896.471 29.49 897.431 29.91L895.451 37.65C893.831 36.93 892.211 36.57 890.591 36.57C886.871 36.57 885.011 39.06 885.011 44.04V48.81H893.651V57H885.011V93H874.661ZM918.637 94.08C914.977 94.08 911.557 93.18 908.377 91.38C905.197 89.52 902.617 86.88 900.637 83.46C898.657 79.98 897.667 75.81 897.667 70.95C897.667 66.03 898.657 61.86 900.637 58.44C902.617 54.96 905.197 52.32 908.377 50.52C911.557 48.66 914.977 47.73 918.637 47.73C922.357 47.73 925.807 48.66 928.987 50.52C932.167 52.32 934.747 54.96 936.727 58.44C938.707 61.86 939.697 66.03 939.697 70.95C939.697 75.81 938.707 79.98 936.727 83.46C934.747 86.88 932.167 89.52 928.987 91.38C925.807 93.18 922.357 94.08 918.637 94.08ZM918.637 85.62C921.877 85.62 924.427 84.27 926.287 81.57C928.147 78.87 929.077 75.33 929.077 70.95C929.077 66.51 928.147 62.94 926.287 60.24C924.427 57.54 921.877 56.19 918.637 56.19C915.397 56.19 912.847 57.54 910.987 60.24C909.187 62.94 908.287 66.51 908.287 70.95C908.287 75.33 909.187 78.87 910.987 81.57C912.847 84.27 915.397 85.62 918.637 85.62ZM949.941 93V48.81H958.491L959.211 56.64H959.571C961.131 53.76 963.021 51.57 965.241 50.07C967.461 48.51 969.741 47.73 972.081 47.73C974.181 47.73 975.861 48.03 977.121 48.63L975.321 57.63C974.541 57.39 973.821 57.21 973.161 57.09C972.501 56.97 971.691 56.91 970.731 56.91C968.991 56.91 967.161 57.6 965.241 58.98C963.321 60.3 961.671 62.64 960.291 66V93H949.941ZM417.66 207.08C413.7 207.08 409.86 206.33 406.14 204.83C402.48 203.33 399.24 201.2 396.42 198.44L402.54 191.33C404.64 193.31 407.04 194.93 409.74 196.19C412.44 197.39 415.14 197.99 417.84 197.99C421.2 197.99 423.75 197.3 425.49 195.92C427.23 194.54 428.1 192.71 428.1 190.43C428.1 187.97 427.23 186.2 425.49 185.12C423.81 184.04 421.65 182.93 419.01 181.79L410.91 178.28C408.99 177.44 407.1 176.36 405.24 175.04C403.44 173.72 401.94 172.04 400.74 170C399.6 167.96 399.03 165.5 399.03 162.62C399.03 159.5 399.87 156.71 401.55 154.25C403.29 151.73 405.63 149.75 408.57 148.31C411.57 146.81 414.99 146.06 418.83 146.06C422.25 146.06 425.55 146.75 428.73 148.13C431.91 149.45 434.64 151.25 436.92 153.53L431.61 160.19C429.75 158.63 427.77 157.4 425.67 156.5C423.63 155.6 421.35 155.15 418.83 155.15C416.07 155.15 413.82 155.78 412.08 157.04C410.4 158.24 409.56 159.92 409.56 162.08C409.56 163.58 409.98 164.84 410.82 165.86C411.72 166.82 412.89 167.66 414.33 168.38C415.77 169.04 417.3 169.7 418.92 170.36L426.93 173.69C430.41 175.19 433.26 177.17 435.48 179.63C437.7 182.03 438.81 185.36 438.81 189.62C438.81 192.8 437.97 195.71 436.29 198.35C434.61 200.99 432.18 203.12 429 204.74C425.88 206.3 422.1 207.08 417.66 207.08ZM461.81 207.08C456.71 207.08 453.08 205.61 450.92 202.67C448.82 199.67 447.77 195.8 447.77 191.06V170H441.47V162.26L448.31 161.81L449.57 149.75H458.21V161.81H469.46V170H458.21V191.06C458.21 196.22 460.28 198.8 464.42 198.8C465.2 198.8 466.01 198.71 466.85 198.53C467.69 198.29 468.41 198.05 469.01 197.81L470.81 205.46C469.61 205.88 468.23 206.24 466.67 206.54C465.17 206.9 463.55 207.08 461.81 207.08ZM487.536 207.08C483.696 207.08 480.546 205.88 478.086 203.48C475.686 201.08 474.486 197.96 474.486 194.12C474.486 189.38 476.556 185.72 480.696 183.14C484.836 180.5 491.436 178.7 500.496 177.74C500.436 175.4 499.806 173.39 498.606 171.71C497.466 169.97 495.396 169.1 492.396 169.1C490.236 169.1 488.106 169.52 486.006 170.36C483.966 171.2 481.956 172.22 479.976 173.42L476.196 166.49C478.656 164.93 481.416 163.58 484.476 162.44C487.596 161.3 490.896 160.73 494.376 160.73C499.896 160.73 504.006 162.38 506.706 165.68C509.466 168.92 510.846 173.63 510.846 179.81V206H502.296L501.576 201.14H501.216C499.236 202.82 497.106 204.23 494.826 205.37C492.606 206.51 490.176 207.08 487.536 207.08ZM490.866 198.98C492.666 198.98 494.286 198.56 495.726 197.72C497.226 196.82 498.816 195.62 500.496 194.12V184.22C494.496 185 490.326 186.17 487.986 187.73C485.646 189.23 484.476 191.09 484.476 193.31C484.476 195.29 485.076 196.73 486.276 197.63C487.476 198.53 489.006 198.98 490.866 198.98ZM537.396 207.08C532.296 207.08 528.666 205.61 526.506 202.67C524.406 199.67 523.356 195.8 523.356 191.06V170H517.056V162.26L523.896 161.81L525.156 149.75H533.796V161.81H545.046V170H533.796V191.06C533.796 196.22 535.866 198.8 540.006 198.8C540.786 198.8 541.596 198.71 542.436 198.53C543.276 198.29 543.996 198.05 544.596 197.81L546.396 205.46C545.196 205.88 543.816 206.24 542.256 206.54C540.756 206.9 539.136 207.08 537.396 207.08ZM554.345 206V161.81H564.695V206H554.345ZM559.565 154.07C557.705 154.07 556.205 153.53 555.065 152.45C553.925 151.37 553.355 149.93 553.355 148.13C553.355 146.39 553.925 144.98 555.065 143.9C556.205 142.82 557.705 142.28 559.565 142.28C561.425 142.28 562.925 142.82 564.065 143.9C565.205 144.98 565.775 146.39 565.775 148.13C565.775 149.93 565.205 151.37 564.065 152.45C562.925 153.53 561.425 154.07 559.565 154.07ZM590.23 207.08C587.23 207.08 584.23 206.51 581.23 205.37C578.23 204.17 575.65 202.7 573.49 200.96L578.35 194.3C580.33 195.8 582.31 197 584.29 197.9C586.27 198.8 588.37 199.25 590.59 199.25C592.99 199.25 594.76 198.74 595.9 197.72C597.04 196.7 597.61 195.44 597.61 193.94C597.61 192.68 597.13 191.66 596.17 190.88C595.27 190.04 594.1 189.32 592.66 188.72C591.22 188.06 589.72 187.43 588.16 186.83C586.24 186.11 584.32 185.24 582.4 184.22C580.54 183.14 579.01 181.79 577.81 180.17C576.61 178.49 576.01 176.42 576.01 173.96C576.01 170.06 577.45 166.88 580.33 164.42C583.21 161.96 587.11 160.73 592.03 160.73C595.15 160.73 597.94 161.27 600.4 162.35C602.86 163.43 604.99 164.66 606.79 166.04L602.02 172.34C600.46 171.2 598.87 170.3 597.25 169.64C595.69 168.92 594.04 168.56 592.3 168.56C590.08 168.56 588.43 169.04 587.35 170C586.27 170.9 585.73 172.04 585.73 173.42C585.73 175.16 586.63 176.48 588.43 177.38C590.23 178.28 592.33 179.15 594.73 179.99C596.77 180.71 598.75 181.61 600.67 182.69C602.59 183.71 604.18 185.06 605.44 186.74C606.76 188.42 607.42 190.64 607.42 193.4C607.42 197.18 605.95 200.42 603.01 203.12C600.07 205.76 595.81 207.08 590.23 207.08ZM630.472 207.08C625.372 207.08 621.742 205.61 619.582 202.67C617.482 199.67 616.432 195.8 616.432 191.06V170H610.132V162.26L616.972 161.81L618.232 149.75H626.872V161.81H638.122V170H626.872V191.06C626.872 196.22 628.942 198.8 633.082 198.8C633.862 198.8 634.672 198.71 635.512 198.53C636.352 198.29 637.072 198.05 637.672 197.81L639.472 205.46C638.272 205.88 636.892 206.24 635.332 206.54C633.832 206.9 632.212 207.08 630.472 207.08ZM647.422 206V161.81H657.772V206H647.422ZM652.642 154.07C650.782 154.07 649.282 153.53 648.142 152.45C647.002 151.37 646.432 149.93 646.432 148.13C646.432 146.39 647.002 144.98 648.142 143.9C649.282 142.82 650.782 142.28 652.642 142.28C654.502 142.28 656.002 142.82 657.142 143.9C658.282 144.98 658.852 146.39 658.852 148.13C658.852 149.93 658.282 151.37 657.142 152.45C656.002 153.53 654.502 154.07 652.642 154.07ZM689.426 207.08C685.406 207.08 681.776 206.18 678.536 204.38C675.356 202.52 672.806 199.88 670.886 196.46C669.026 192.98 668.096 188.81 668.096 183.95C668.096 179.03 669.116 174.86 671.156 171.44C673.196 167.96 675.896 165.32 679.256 163.52C682.676 161.66 686.336 160.73 690.236 160.73C693.056 160.73 695.516 161.21 697.616 162.17C699.716 163.13 701.576 164.3 703.196 165.68L698.156 172.43C697.016 171.41 695.846 170.63 694.646 170.09C693.446 169.49 692.156 169.19 690.776 169.19C687.236 169.19 684.326 170.54 682.046 173.24C679.826 175.94 678.716 179.51 678.716 183.95C678.716 188.33 679.796 191.87 681.956 194.57C684.176 197.27 687.026 198.62 690.506 198.62C692.246 198.62 693.866 198.26 695.366 197.54C696.926 196.76 698.336 195.86 699.596 194.84L703.826 201.68C701.786 203.48 699.506 204.83 696.986 205.73C694.466 206.63 691.946 207.08 689.426 207.08ZM724.879 207.08C721.879 207.08 718.879 206.51 715.879 205.37C712.879 204.17 710.299 202.7 708.139 200.96L712.999 194.3C714.979 195.8 716.959 197 718.939 197.9C720.919 198.8 723.019 199.25 725.239 199.25C727.639 199.25 729.409 198.74 730.549 197.72C731.689 196.7 732.259 195.44 732.259 193.94C732.259 192.68 731.779 191.66 730.819 190.88C729.919 190.04 728.749 189.32 727.309 188.72C725.869 188.06 724.369 187.43 722.809 186.83C720.889 186.11 718.969 185.24 717.049 184.22C715.189 183.14 713.659 181.79 712.459 180.17C711.259 178.49 710.659 176.42 710.659 173.96C710.659 170.06 712.099 166.88 714.979 164.42C717.859 161.96 721.759 160.73 726.679 160.73C729.799 160.73 732.589 161.27 735.049 162.35C737.509 163.43 739.639 164.66 741.439 166.04L736.669 172.34C735.109 171.2 733.519 170.3 731.899 169.64C730.339 168.92 728.689 168.56 726.949 168.56C724.729 168.56 723.079 169.04 721.999 170C720.919 170.9 720.379 172.04 720.379 173.42C720.379 175.16 721.279 176.48 723.079 177.38C724.879 178.28 726.979 179.15 729.379 179.99C731.419 180.71 733.399 181.61 735.319 182.69C737.239 183.71 738.829 185.06 740.089 186.74C741.409 188.42 742.069 190.64 742.069 193.4C742.069 197.18 740.599 200.42 737.659 203.12C734.719 205.76 730.459 207.08 724.879 207.08ZM769.326 206V161.81H779.676V206H769.326ZM774.546 154.07C772.686 154.07 771.186 153.53 770.046 152.45C768.906 151.37 768.336 149.93 768.336 148.13C768.336 146.39 768.906 144.98 770.046 143.9C771.186 142.82 772.686 142.28 774.546 142.28C776.406 142.28 777.906 142.82 779.046 143.9C780.186 144.98 780.756 146.39 780.756 148.13C780.756 149.93 780.186 151.37 779.046 152.45C777.906 153.53 776.406 154.07 774.546 154.07ZM792.881 206V161.81H801.431L802.151 167.75H802.511C804.491 165.83 806.651 164.18 808.991 162.8C811.331 161.42 814.001 160.73 817.001 160.73C821.741 160.73 825.191 162.26 827.351 165.32C829.511 168.38 830.591 172.7 830.591 178.28V206H820.241V179.63C820.241 175.97 819.701 173.39 818.621 171.89C817.541 170.39 815.771 169.64 813.311 169.64C811.391 169.64 809.681 170.12 808.181 171.08C806.741 171.98 805.091 173.33 803.231 175.13V206H792.881ZM400.47 319V260.14H416.22C425.22 260.14 432.24 262.57 437.28 267.43C442.32 272.29 444.84 279.58 444.84 289.3C444.84 299.08 442.35 306.49 437.37 311.53C432.39 316.51 425.52 319 416.76 319H400.47ZM410.91 310.54H415.5C421.44 310.54 426.03 308.83 429.27 305.41C432.51 301.93 434.13 296.56 434.13 289.3C434.13 282.1 432.51 276.85 429.27 273.55C426.03 270.25 421.44 268.6 415.5 268.6H410.91V310.54ZM455.82 319V274.81H466.17V319H455.82ZM461.04 267.07C459.18 267.07 457.68 266.53 456.54 265.45C455.4 264.37 454.83 262.93 454.83 261.13C454.83 259.39 455.4 257.98 456.54 256.9C457.68 255.82 459.18 255.28 461.04 255.28C462.9 255.28 464.4 255.82 465.54 256.9C466.68 257.98 467.25 259.39 467.25 261.13C467.25 262.93 466.68 264.37 465.54 265.45C464.4 266.53 462.9 267.07 461.04 267.07ZM491.705 320.08C488.705 320.08 485.705 319.51 482.705 318.37C479.705 317.17 477.125 315.7 474.965 313.96L479.825 307.3C481.805 308.8 483.785 310 485.765 310.9C487.745 311.8 489.845 312.25 492.065 312.25C494.465 312.25 496.235 311.74 497.375 310.72C498.515 309.7 499.085 308.44 499.085 306.94C499.085 305.68 498.605 304.66 497.645 303.88C496.745 303.04 495.575 302.32 494.135 301.72C492.695 301.06 491.195 300.43 489.635 299.83C487.715 299.11 485.795 298.24 483.875 297.22C482.015 296.14 480.485 294.79 479.285 293.17C478.085 291.49 477.485 289.42 477.485 286.96C477.485 283.06 478.925 279.88 481.805 277.42C484.685 274.96 488.585 273.73 493.505 273.73C496.625 273.73 499.415 274.27 501.875 275.35C504.335 276.43 506.465 277.66 508.265 279.04L503.495 285.34C501.935 284.2 500.345 283.3 498.725 282.64C497.165 281.92 495.515 281.56 493.775 281.56C491.555 281.56 489.905 282.04 488.825 283C487.745 283.9 487.205 285.04 487.205 286.42C487.205 288.16 488.105 289.48 489.905 290.38C491.705 291.28 493.805 292.15 496.205 292.99C498.245 293.71 500.225 294.61 502.145 295.69C504.065 296.71 505.655 298.06 506.915 299.74C508.235 301.42 508.895 303.64 508.895 306.4C508.895 310.18 507.425 313.42 504.485 316.12C501.545 318.76 497.285 320.08 491.705 320.08ZM537.034 320.08C532.954 320.08 529.264 319.18 525.964 317.38C522.664 315.52 520.054 312.88 518.134 309.46C516.214 305.98 515.254 301.81 515.254 296.95C515.254 292.15 516.214 288.01 518.134 284.53C520.114 281.05 522.664 278.38 525.784 276.52C528.904 274.66 532.174 273.73 535.594 273.73C539.614 273.73 542.974 274.63 545.674 276.43C548.374 278.17 550.414 280.63 551.794 283.81C553.174 286.93 553.864 290.56 553.864 294.7C553.864 296.86 553.714 298.54 553.414 299.74H525.334C525.814 303.64 527.224 306.67 529.564 308.83C531.904 310.99 534.844 312.07 538.384 312.07C540.304 312.07 542.074 311.8 543.694 311.26C545.374 310.66 547.024 309.85 548.644 308.83L552.154 315.31C550.054 316.69 547.714 317.83 545.134 318.73C542.554 319.63 539.854 320.08 537.034 320.08ZM525.244 292.72H544.864C544.864 289.3 544.114 286.63 542.614 284.71C541.114 282.73 538.864 281.74 535.864 281.74C533.284 281.74 530.974 282.7 528.934 284.62C526.954 286.48 525.724 289.18 525.244 292.72ZM573.405 320.08C569.565 320.08 566.415 318.88 563.955 316.48C561.555 314.08 560.355 310.96 560.355 307.12C560.355 302.38 562.425 298.72 566.565 296.14C570.705 293.5 577.305 291.7 586.365 290.74C586.305 288.4 585.675 286.39 584.475 284.71C583.335 282.97 581.265 282.1 578.265 282.1C576.105 282.1 573.975 282.52 571.875 283.36C569.835 284.2 567.825 285.22 565.845 286.42L562.065 279.49C564.525 277.93 567.285 276.58 570.345 275.44C573.465 274.3 576.765 273.73 580.245 273.73C585.765 273.73 589.875 275.38 592.575 278.68C595.335 281.92 596.715 286.63 596.715 292.81V319H588.165L587.445 314.14H587.085C585.105 315.82 582.975 317.23 580.695 318.37C578.475 319.51 576.045 320.08 573.405 320.08ZM576.735 311.98C578.535 311.98 580.155 311.56 581.595 310.72C583.095 309.82 584.685 308.62 586.365 307.12V297.22C580.365 298 576.195 299.17 573.855 300.73C571.515 302.23 570.345 304.09 570.345 306.31C570.345 308.29 570.945 309.73 572.145 310.63C573.345 311.53 574.875 311.98 576.735 311.98ZM621.431 320.08C618.431 320.08 615.431 319.51 612.431 318.37C609.431 317.17 606.851 315.7 604.691 313.96L609.551 307.3C611.531 308.8 613.511 310 615.491 310.9C617.471 311.8 619.571 312.25 621.791 312.25C624.191 312.25 625.961 311.74 627.101 310.72C628.241 309.7 628.811 308.44 628.811 306.94C628.811 305.68 628.331 304.66 627.371 303.88C626.471 303.04 625.301 302.32 623.861 301.72C622.421 301.06 620.921 300.43 619.361 299.83C617.441 299.11 615.521 298.24 613.601 297.22C611.741 296.14 610.211 294.79 609.011 293.17C607.811 291.49 607.211 289.42 607.211 286.96C607.211 283.06 608.651 279.88 611.531 277.42C614.411 274.96 618.311 273.73 623.231 273.73C626.351 273.73 629.141 274.27 631.601 275.35C634.061 276.43 636.191 277.66 637.991 279.04L633.221 285.34C631.661 284.2 630.071 283.3 628.451 282.64C626.891 281.92 625.241 281.56 623.501 281.56C621.281 281.56 619.631 282.04 618.551 283C617.471 283.9 616.931 285.04 616.931 286.42C616.931 288.16 617.831 289.48 619.631 290.38C621.431 291.28 623.531 292.15 625.931 292.99C627.971 293.71 629.951 294.61 631.871 295.69C633.791 296.71 635.381 298.06 636.641 299.74C637.961 301.42 638.621 303.64 638.621 306.4C638.621 310.18 637.151 313.42 634.211 316.12C631.271 318.76 627.011 320.08 621.431 320.08ZM666.761 320.08C662.681 320.08 658.991 319.18 655.691 317.38C652.391 315.52 649.781 312.88 647.861 309.46C645.941 305.98 644.981 301.81 644.981 296.95C644.981 292.15 645.941 288.01 647.861 284.53C649.841 281.05 652.391 278.38 655.511 276.52C658.631 274.66 661.901 273.73 665.321 273.73C669.341 273.73 672.701 274.63 675.401 276.43C678.101 278.17 680.141 280.63 681.521 283.81C682.901 286.93 683.591 290.56 683.591 294.7C683.591 296.86 683.441 298.54 683.141 299.74H655.061C655.541 303.64 656.951 306.67 659.291 308.83C661.631 310.99 664.571 312.07 668.111 312.07C670.031 312.07 671.801 311.8 673.421 311.26C675.101 310.66 676.751 309.85 678.371 308.83L681.881 315.31C679.781 316.69 677.441 317.83 674.861 318.73C672.281 319.63 669.581 320.08 666.761 320.08ZM654.971 292.72H674.591C674.591 289.3 673.841 286.63 672.341 284.71C670.841 282.73 668.591 281.74 665.591 281.74C663.011 281.74 660.701 282.7 658.661 284.62C656.681 286.48 655.451 289.18 654.971 292.72ZM729.584 320.08C725.624 320.08 721.784 319.33 718.064 317.83C714.404 316.33 711.164 314.2 708.344 311.44L714.464 304.33C716.564 306.31 718.964 307.93 721.664 309.19C724.364 310.39 727.064 310.99 729.764 310.99C733.124 310.99 735.674 310.3 737.414 308.92C739.154 307.54 740.024 305.71 740.024 303.43C740.024 300.97 739.154 299.2 737.414 298.12C735.734 297.04 733.574 295.93 730.934 294.79L722.834 291.28C720.914 290.44 719.024 289.36 717.164 288.04C715.364 286.72 713.864 285.04 712.664 283C711.524 280.96 710.954 278.5 710.954 275.62C710.954 272.5 711.794 269.71 713.474 267.25C715.214 264.73 717.554 262.75 720.494 261.31C723.494 259.81 726.914 259.06 730.754 259.06C734.174 259.06 737.474 259.75 740.654 261.13C743.834 262.45 746.564 264.25 748.844 266.53L743.534 273.19C741.674 271.63 739.694 270.4 737.594 269.5C735.554 268.6 733.274 268.15 730.754 268.15C727.994 268.15 725.744 268.78 724.004 270.04C722.324 271.24 721.484 272.92 721.484 275.08C721.484 276.58 721.904 277.84 722.744 278.86C723.644 279.82 724.814 280.66 726.254 281.38C727.694 282.04 729.224 282.7 730.844 283.36L738.854 286.69C742.334 288.19 745.184 290.17 747.404 292.63C749.624 295.03 750.734 298.36 750.734 302.62C750.734 305.8 749.894 308.71 748.214 311.35C746.534 313.99 744.104 316.12 740.924 317.74C737.804 319.3 734.024 320.08 729.584 320.08ZM773.677 320.08C768.937 320.08 765.487 318.55 763.327 315.49C761.167 312.43 760.087 308.11 760.087 302.53V274.81H770.437V301.18C770.437 304.84 770.977 307.42 772.057 308.92C773.137 310.42 774.877 311.17 777.277 311.17C779.197 311.17 780.877 310.69 782.317 309.73C783.817 308.77 785.407 307.21 787.087 305.05V274.81H797.437V319H788.977L788.167 312.52H787.897C785.977 314.8 783.877 316.63 781.597 318.01C779.317 319.39 776.677 320.08 773.677 320.08ZM810.547 319V274.81H819.097L819.817 282.64H820.177C821.737 279.76 823.627 277.57 825.847 276.07C828.067 274.51 830.347 273.73 832.687 273.73C834.787 273.73 836.467 274.03 837.727 274.63L835.927 283.63C835.147 283.39 834.427 283.21 833.767 283.09C833.107 282.97 832.297 282.91 831.337 282.91C829.597 282.91 827.767 283.6 825.847 284.98C823.927 286.3 822.277 288.64 820.897 292V319H810.547ZM855.427 319L840.037 274.81H850.567L857.587 297.76C858.187 299.92 858.787 302.11 859.387 304.33C860.047 306.55 860.677 308.8 861.277 311.08H861.637C862.297 308.8 862.927 306.55 863.527 304.33C864.187 302.11 864.817 299.92 865.417 297.76L872.437 274.81H882.427L867.397 319H855.427ZM908.46 320.08C904.38 320.08 900.69 319.18 897.39 317.38C894.09 315.52 891.48 312.88 889.56 309.46C887.64 305.98 886.68 301.81 886.68 296.95C886.68 292.15 887.64 288.01 889.56 284.53C891.54 281.05 894.09 278.38 897.21 276.52C900.33 274.66 903.6 273.73 907.02 273.73C911.04 273.73 914.4 274.63 917.1 276.43C919.8 278.17 921.84 280.63 923.22 283.81C924.6 286.93 925.29 290.56 925.29 294.7C925.29 296.86 925.14 298.54 924.84 299.74H896.76C897.24 303.64 898.65 306.67 900.99 308.83C903.33 310.99 906.27 312.07 909.81 312.07C911.73 312.07 913.5 311.8 915.12 311.26C916.8 310.66 918.45 309.85 920.07 308.83L923.58 315.31C921.48 316.69 919.14 317.83 916.56 318.73C913.98 319.63 911.28 320.08 908.46 320.08ZM896.67 292.72H916.29C916.29 289.3 915.54 286.63 914.04 284.71C912.54 282.73 910.29 281.74 907.29 281.74C904.71 281.74 902.4 282.7 900.36 284.62C898.38 286.48 897.15 289.18 896.67 292.72ZM935.175 319V274.81H945.525V319H935.175ZM940.395 267.07C938.535 267.07 937.035 266.53 935.895 265.45C934.755 264.37 934.185 262.93 934.185 261.13C934.185 259.39 934.755 257.98 935.895 256.9C937.035 255.82 938.535 255.28 940.395 255.28C942.255 255.28 943.755 255.82 944.895 256.9C946.035 257.98 946.605 259.39 946.605 261.13C946.605 262.93 946.035 264.37 944.895 265.45C943.755 266.53 942.255 267.07 940.395 267.07ZM968.81 320.08C965.15 320.08 962.54 318.97 960.98 316.75C959.48 314.53 958.73 311.5 958.73 307.66V255.46H969.08V308.2C969.08 309.46 969.32 310.36 969.8 310.9C970.28 311.38 970.79 311.62 971.33 311.62C971.57 311.62 971.78 311.62 971.96 311.62C972.2 311.56 972.53 311.5 972.95 311.44L974.3 319.18C973.7 319.42 972.92 319.63 971.96 319.81C971.06 319.99 970.01 320.08 968.81 320.08ZM993.244 320.08C989.584 320.08 986.974 318.97 985.414 316.75C983.914 314.53 983.164 311.5 983.164 307.66V255.46H993.514V308.2C993.514 309.46 993.754 310.36 994.234 310.9C994.714 311.38 995.224 311.62 995.764 311.62C996.004 311.62 996.214 311.62 996.394 311.62C996.634 311.56 996.964 311.5 997.384 311.44L998.734 319.18C998.134 319.42 997.354 319.63 996.394 319.81C995.494 319.99 994.444 320.08 993.244 320.08ZM1018.31 320.08C1014.47 320.08 1011.32 318.88 1008.86 316.48C1006.46 314.08 1005.26 310.96 1005.26 307.12C1005.26 302.38 1007.33 298.72 1011.47 296.14C1015.61 293.5 1022.21 291.7 1031.27 290.74C1031.21 288.4 1030.58 286.39 1029.38 284.71C1028.24 282.97 1026.17 282.1 1023.17 282.1C1021.01 282.1 1018.88 282.52 1016.78 283.36C1014.74 284.2 1012.73 285.22 1010.75 286.42L1006.97 279.49C1009.43 277.93 1012.19 276.58 1015.25 275.44C1018.37 274.3 1021.67 273.73 1025.15 273.73C1030.67 273.73 1034.78 275.38 1037.48 278.68C1040.24 281.92 1041.62 286.63 1041.62 292.81V319H1033.07L1032.35 314.14H1031.99C1030.01 315.82 1027.88 317.23 1025.6 318.37C1023.38 319.51 1020.95 320.08 1018.31 320.08ZM1021.64 311.98C1023.44 311.98 1025.06 311.56 1026.5 310.72C1028 309.82 1029.59 308.62 1031.27 307.12V297.22C1025.27 298 1021.1 299.17 1018.76 300.73C1016.42 302.23 1015.25 304.09 1015.25 306.31C1015.25 308.29 1015.85 309.73 1017.05 310.63C1018.25 311.53 1019.78 311.98 1021.64 311.98ZM1054 319V274.81H1062.55L1063.27 280.75H1063.63C1065.61 278.83 1067.77 277.18 1070.11 275.8C1072.45 274.42 1075.12 273.73 1078.12 273.73C1082.86 273.73 1086.31 275.26 1088.47 278.32C1090.63 281.38 1091.71 285.7 1091.71 291.28V319H1081.36V292.63C1081.36 288.97 1080.82 286.39 1079.74 284.89C1078.66 283.39 1076.89 282.64 1074.43 282.64C1072.51 282.64 1070.8 283.12 1069.3 284.08C1067.86 284.98 1066.21 286.33 1064.35 288.13V319H1054ZM1122.81 320.08C1118.79 320.08 1115.16 319.18 1111.92 317.38C1108.74 315.52 1106.19 312.88 1104.27 309.46C1102.41 305.98 1101.48 301.81 1101.48 296.95C1101.48 292.03 1102.5 287.86 1104.54 284.44C1106.58 280.96 1109.28 278.32 1112.64 276.52C1116.06 274.66 1119.72 273.73 1123.62 273.73C1126.44 273.73 1128.9 274.21 1131 275.17C1133.1 276.13 1134.96 277.3 1136.58 278.68L1131.54 285.43C1130.4 284.41 1129.23 283.63 1128.03 283.09C1126.83 282.49 1125.54 282.19 1124.16 282.19C1120.62 282.19 1117.71 283.54 1115.43 286.24C1113.21 288.94 1112.1 292.51 1112.1 296.95C1112.1 301.33 1113.18 304.87 1115.34 307.57C1117.56 310.27 1120.41 311.62 1123.89 311.62C1125.63 311.62 1127.25 311.26 1128.75 310.54C1130.31 309.76 1131.72 308.86 1132.98 307.84L1137.21 314.68C1135.17 316.48 1132.89 317.83 1130.37 318.73C1127.85 319.63 1125.33 320.08 1122.81 320.08ZM1162.64 320.08C1158.56 320.08 1154.87 319.18 1151.57 317.38C1148.27 315.52 1145.66 312.88 1143.74 309.46C1141.82 305.98 1140.86 301.81 1140.86 296.95C1140.86 292.15 1141.82 288.01 1143.74 284.53C1145.72 281.05 1148.27 278.38 1151.39 276.52C1154.51 274.66 1157.78 273.73 1161.2 273.73C1165.22 273.73 1168.58 274.63 1171.28 276.43C1173.98 278.17 1176.02 280.63 1177.4 283.81C1178.78 286.93 1179.47 290.56 1179.47 294.7C1179.47 296.86 1179.32 298.54 1179.02 299.74H1150.94C1151.42 303.64 1152.83 306.67 1155.17 308.83C1157.51 310.99 1160.45 312.07 1163.99 312.07C1165.91 312.07 1167.68 311.8 1169.3 311.26C1170.98 310.66 1172.63 309.85 1174.25 308.83L1177.76 315.31C1175.66 316.69 1173.32 317.83 1170.74 318.73C1168.16 319.63 1165.46 320.08 1162.64 320.08ZM1150.85 292.72H1170.47C1170.47 289.3 1169.72 286.63 1168.22 284.71C1166.72 282.73 1164.47 281.74 1161.47 281.74C1158.89 281.74 1156.58 282.7 1154.54 284.62C1152.56 286.48 1151.33 289.18 1150.85 292.72Z" fill="white"/>
</svg>
